# xmcd CD database file
#
# Track frame offsets:
#	150
#	23984
#	54024
#	86430
#	106500
#	134409
#	156998
#	190644
#	209712
#	239737
#
# Disc length: 3560 seconds
#
# Revision: 0
# Processed by: cddbd v1.5.1PL0 Copyright (c) Steve Scherf et al.
# Submitted via: CDex 1.51
#
DISCID=800de60a
DTITLE=Norberto Pedreira Quartet - Cuarenta Anos
DYEAR=2004
DGENRE=Jazz
TTITLE0=Casi cuarenta
TTITLE1=Festejo suspendido
TTITLE2=Viejos Aires
TTITLE3=Cuarenta anos
TTITLE4=Eramos tan jovenes
TTITLE5=Boucle d oreille
TTITLE6=Atardecer en Lisboa
TTITLE7=Soledad
TTITLE8=Viajes
TTITLE9=Anochece y hay que ser
EXTD=YEAR: 2004
EXTT0=
EXTT1=
EXTT2=
EXTT3=
EXTT4=
EXTT5=
EXTT6=
EXTT7=
EXTT8=
EXTT9=
PLAYORDER=
